<mxfile host="app.diagrams.net" modified="2023-09-12T06:10:54.213Z" agent="Mozilla/5.0 (Windows NT 10.0; Win64; x64) AppleWebKit/537.36 (KHTML, like Gecko) Chrome/116.0.0.0 Safari/537.36" etag="3vUzIYHJC5duZvIckk9S" version="21.7.2" type="github">
  <diagram name="第 1 页" id="FeDAz2yLDvK6xiYRFFCP">
    <mxGraphModel dx="1450" dy="1038" grid="0" gridSize="10" guides="1" tooltips="1" connect="1" arrows="1" fold="1" page="0" pageScale="1" pageWidth="827" pageHeight="1169" math="0" shadow="0">
      <root>
        <mxCell id="0" />
        <mxCell id="1" parent="0" />
        <mxCell id="WCTlzMXXT-KYrttnkhmQ-1" value="待机状态" style="text;html=1;strokeColor=none;fillColor=none;align=center;verticalAlign=middle;whiteSpace=wrap;rounded=0;fontFamily=Comic Sans MS;" vertex="1" parent="1">
          <mxGeometry x="17" y="141" width="60" height="30" as="geometry" />
        </mxCell>
        <mxCell id="WCTlzMXXT-KYrttnkhmQ-4" style="edgeStyle=orthogonalEdgeStyle;rounded=0;orthogonalLoop=1;jettySize=auto;html=1;exitX=1;exitY=0.5;exitDx=0;exitDy=0;fontFamily=Comic Sans MS;fontSize=12;fontColor=default;sketch=1;curveFitting=1;jiggle=2;" edge="1" parent="1" source="WCTlzMXXT-KYrttnkhmQ-2" target="WCTlzMXXT-KYrttnkhmQ-3">
          <mxGeometry relative="1" as="geometry" />
        </mxCell>
        <mxCell id="WCTlzMXXT-KYrttnkhmQ-5" value="LVDS" style="edgeLabel;html=1;align=center;verticalAlign=middle;resizable=0;points=[];fontSize=12;fontFamily=Comic Sans MS;fontColor=default;" vertex="1" connectable="0" parent="WCTlzMXXT-KYrttnkhmQ-4">
          <mxGeometry x="0.0619" y="5" relative="1" as="geometry">
            <mxPoint y="1" as="offset" />
          </mxGeometry>
        </mxCell>
        <mxCell id="WCTlzMXXT-KYrttnkhmQ-2" value="APA" style="rounded=1;whiteSpace=wrap;html=1;sketch=1;curveFitting=1;jiggle=2;fillColor=#f5f5f5;fontColor=#333333;strokeColor=#666666;fontFamily=Comic Sans MS;" vertex="1" parent="1">
          <mxGeometry x="59" y="210" width="109" height="51" as="geometry" />
        </mxCell>
        <mxCell id="WCTlzMXXT-KYrttnkhmQ-3" value="ICC" style="rounded=1;whiteSpace=wrap;html=1;sketch=1;curveFitting=1;jiggle=2;fillColor=#dae8fc;strokeColor=#6c8ebf;fontFamily=Comic Sans MS;" vertex="1" parent="1">
          <mxGeometry x="281" y="210" width="109" height="51" as="geometry" />
        </mxCell>
        <mxCell id="WCTlzMXXT-KYrttnkhmQ-6" value="事件状态" style="text;html=1;strokeColor=none;fillColor=none;align=center;verticalAlign=middle;whiteSpace=wrap;rounded=0;fontFamily=Comic Sans MS;" vertex="1" parent="1">
          <mxGeometry x="17" y="329" width="60" height="30" as="geometry" />
        </mxCell>
        <mxCell id="WCTlzMXXT-KYrttnkhmQ-7" style="edgeStyle=orthogonalEdgeStyle;rounded=0;orthogonalLoop=1;jettySize=auto;html=1;exitX=1;exitY=0.5;exitDx=0;exitDy=0;fontFamily=Comic Sans MS;fontSize=12;fontColor=default;sketch=1;curveFitting=1;jiggle=2;" edge="1" parent="1" source="WCTlzMXXT-KYrttnkhmQ-9" target="WCTlzMXXT-KYrttnkhmQ-10">
          <mxGeometry relative="1" as="geometry" />
        </mxCell>
        <mxCell id="WCTlzMXXT-KYrttnkhmQ-8" value="LVDS" style="edgeLabel;html=1;align=center;verticalAlign=middle;resizable=0;points=[];fontSize=12;fontFamily=Comic Sans MS;fontColor=default;" vertex="1" connectable="0" parent="WCTlzMXXT-KYrttnkhmQ-7">
          <mxGeometry x="0.0619" y="5" relative="1" as="geometry">
            <mxPoint y="1" as="offset" />
          </mxGeometry>
        </mxCell>
        <mxCell id="WCTlzMXXT-KYrttnkhmQ-18" style="edgeStyle=orthogonalEdgeStyle;shape=connector;curved=1;rounded=1;sketch=1;jiggle=2;curveFitting=1;orthogonalLoop=1;jettySize=auto;html=1;exitX=0.5;exitY=1;exitDx=0;exitDy=0;entryX=0;entryY=0.5;entryDx=0;entryDy=0;labelBackgroundColor=default;strokeColor=#b85450;fontFamily=Helvetica;fontSize=12;fontColor=default;endArrow=classic;dashed=1;dashPattern=1 4;fillColor=#f8cecc;" edge="1" parent="1" source="WCTlzMXXT-KYrttnkhmQ-9" target="WCTlzMXXT-KYrttnkhmQ-11">
          <mxGeometry relative="1" as="geometry" />
        </mxCell>
        <mxCell id="WCTlzMXXT-KYrttnkhmQ-23" value="靠近" style="edgeLabel;html=1;align=center;verticalAlign=middle;resizable=0;points=[];fontSize=12;fontFamily=Helvetica;fontColor=default;" vertex="1" connectable="0" parent="WCTlzMXXT-KYrttnkhmQ-18">
          <mxGeometry x="-0.4175" y="29" relative="1" as="geometry">
            <mxPoint as="offset" />
          </mxGeometry>
        </mxCell>
        <mxCell id="WCTlzMXXT-KYrttnkhmQ-9" value="APA" style="rounded=1;whiteSpace=wrap;html=1;sketch=1;curveFitting=1;jiggle=2;fillColor=#f5f5f5;fontColor=#333333;strokeColor=#666666;fontFamily=Comic Sans MS;" vertex="1" parent="1">
          <mxGeometry x="59" y="398" width="109" height="51" as="geometry" />
        </mxCell>
        <mxCell id="WCTlzMXXT-KYrttnkhmQ-14" style="edgeStyle=orthogonalEdgeStyle;shape=connector;rounded=0;sketch=1;jiggle=2;curveFitting=1;orthogonalLoop=1;jettySize=auto;html=1;exitX=1;exitY=0.5;exitDx=0;exitDy=0;entryX=0;entryY=0.5;entryDx=0;entryDy=0;labelBackgroundColor=default;strokeColor=default;fontFamily=Comic Sans MS;fontSize=12;fontColor=default;endArrow=classic;" edge="1" parent="1" source="WCTlzMXXT-KYrttnkhmQ-10" target="WCTlzMXXT-KYrttnkhmQ-13">
          <mxGeometry relative="1" as="geometry" />
        </mxCell>
        <mxCell id="WCTlzMXXT-KYrttnkhmQ-15" value="FTP" style="edgeLabel;html=1;align=center;verticalAlign=middle;resizable=0;points=[];fontSize=12;fontFamily=Helvetica;fontColor=default;" vertex="1" connectable="0" parent="WCTlzMXXT-KYrttnkhmQ-14">
          <mxGeometry x="-0.2593" relative="1" as="geometry">
            <mxPoint x="14" as="offset" />
          </mxGeometry>
        </mxCell>
        <mxCell id="WCTlzMXXT-KYrttnkhmQ-27" style="edgeStyle=orthogonalEdgeStyle;shape=connector;curved=1;rounded=1;sketch=1;jiggle=2;curveFitting=1;orthogonalLoop=1;jettySize=auto;html=1;exitX=0.75;exitY=0;exitDx=0;exitDy=0;entryX=0.25;entryY=0;entryDx=0;entryDy=0;labelBackgroundColor=default;strokeColor=default;fontFamily=Helvetica;fontSize=12;fontColor=default;endArrow=classic;" edge="1" parent="1" source="WCTlzMXXT-KYrttnkhmQ-10" target="WCTlzMXXT-KYrttnkhmQ-13">
          <mxGeometry relative="1" as="geometry">
            <Array as="points">
              <mxPoint x="363" y="368" />
              <mxPoint x="525" y="368" />
            </Array>
          </mxGeometry>
        </mxCell>
        <mxCell id="WCTlzMXXT-KYrttnkhmQ-28" value="DVR录制" style="edgeLabel;html=1;align=center;verticalAlign=middle;resizable=0;points=[];fontSize=12;fontFamily=Helvetica;fontColor=default;" vertex="1" connectable="0" parent="WCTlzMXXT-KYrttnkhmQ-27">
          <mxGeometry x="0.1164" y="-1" relative="1" as="geometry">
            <mxPoint as="offset" />
          </mxGeometry>
        </mxCell>
        <mxCell id="WCTlzMXXT-KYrttnkhmQ-10" value="ICC" style="rounded=1;whiteSpace=wrap;html=1;sketch=1;curveFitting=1;jiggle=2;fillColor=#dae8fc;strokeColor=#6c8ebf;fontFamily=Comic Sans MS;" vertex="1" parent="1">
          <mxGeometry x="281" y="398" width="109" height="51" as="geometry" />
        </mxCell>
        <mxCell id="WCTlzMXXT-KYrttnkhmQ-12" style="edgeStyle=orthogonalEdgeStyle;shape=connector;rounded=0;sketch=1;jiggle=2;curveFitting=1;orthogonalLoop=1;jettySize=auto;html=1;exitX=0.5;exitY=0;exitDx=0;exitDy=0;entryX=0.5;entryY=1;entryDx=0;entryDy=0;labelBackgroundColor=default;strokeColor=default;fontFamily=Comic Sans MS;fontSize=12;fontColor=default;endArrow=classic;" edge="1" parent="1" source="WCTlzMXXT-KYrttnkhmQ-11" target="WCTlzMXXT-KYrttnkhmQ-10">
          <mxGeometry relative="1" as="geometry" />
        </mxCell>
        <mxCell id="WCTlzMXXT-KYrttnkhmQ-11" value="事件策略" style="rounded=1;whiteSpace=wrap;html=1;sketch=1;curveFitting=1;jiggle=2;fillColor=#f8cecc;strokeColor=#b85450;fontFamily=Comic Sans MS;" vertex="1" parent="1">
          <mxGeometry x="281" y="541" width="109" height="51" as="geometry" />
        </mxCell>
        <mxCell id="WCTlzMXXT-KYrttnkhmQ-17" style="edgeStyle=orthogonalEdgeStyle;shape=connector;sketch=1;jiggle=2;curveFitting=1;orthogonalLoop=1;jettySize=auto;html=1;exitX=0.25;exitY=1;exitDx=0;exitDy=0;entryX=1;entryY=0.5;entryDx=0;entryDy=0;labelBackgroundColor=default;strokeColor=#b85450;fontFamily=Helvetica;fontSize=12;fontColor=default;endArrow=classic;curved=1;dashed=1;fillColor=#f8cecc;dashPattern=1 4;" edge="1" parent="1" source="WCTlzMXXT-KYrttnkhmQ-13" target="WCTlzMXXT-KYrttnkhmQ-11">
          <mxGeometry relative="1" as="geometry" />
        </mxCell>
        <mxCell id="WCTlzMXXT-KYrttnkhmQ-24" value="移动" style="edgeLabel;html=1;align=center;verticalAlign=middle;resizable=0;points=[];fontSize=12;fontFamily=Helvetica;fontColor=default;" vertex="1" connectable="0" parent="WCTlzMXXT-KYrttnkhmQ-17">
          <mxGeometry x="0.193" y="-29" relative="1" as="geometry">
            <mxPoint y="1" as="offset" />
          </mxGeometry>
        </mxCell>
        <mxCell id="WCTlzMXXT-KYrttnkhmQ-13" value="DVR" style="rounded=1;whiteSpace=wrap;html=1;sketch=1;curveFitting=1;jiggle=2;fillColor=#d5e8d4;strokeColor=#82b366;fontFamily=Comic Sans MS;" vertex="1" parent="1">
          <mxGeometry x="498" y="398" width="109" height="51" as="geometry" />
        </mxCell>
        <mxCell id="WCTlzMXXT-KYrttnkhmQ-16" value="1、图像处理&lt;br&gt;2、输出MP4" style="shape=callout;whiteSpace=wrap;html=1;perimeter=calloutPerimeter;rounded=1;sketch=1;jiggle=2;curveFitting=1;strokeColor=#6c8ebf;fontFamily=Helvetica;fontSize=12;fillColor=#dae8fc;dashed=1;dashPattern=8 8;" vertex="1" parent="1">
          <mxGeometry x="284" y="321" width="112" height="69" as="geometry" />
        </mxCell>
        <mxCell id="WCTlzMXXT-KYrttnkhmQ-20" value="侵入" style="edgeStyle=orthogonalEdgeStyle;shape=connector;curved=1;rounded=1;sketch=1;jiggle=2;curveFitting=1;orthogonalLoop=1;jettySize=auto;html=1;exitX=0.5;exitY=0;exitDx=0;exitDy=0;entryX=0.5;entryY=1;entryDx=0;entryDy=0;labelBackgroundColor=default;strokeColor=#b85450;fontFamily=Helvetica;fontSize=12;fontColor=default;endArrow=classic;fillColor=#f8cecc;dashed=1;dashPattern=1 4;" edge="1" parent="1" source="WCTlzMXXT-KYrttnkhmQ-19" target="WCTlzMXXT-KYrttnkhmQ-11">
          <mxGeometry relative="1" as="geometry" />
        </mxCell>
        <mxCell id="WCTlzMXXT-KYrttnkhmQ-19" value="BDCU" style="rounded=1;whiteSpace=wrap;html=1;sketch=1;curveFitting=1;jiggle=2;fillColor=#fff2cc;strokeColor=#d6b656;fontFamily=Comic Sans MS;" vertex="1" parent="1">
          <mxGeometry x="71" y="644" width="109" height="51" as="geometry" />
        </mxCell>
        <mxCell id="WCTlzMXXT-KYrttnkhmQ-22" style="edgeStyle=orthogonalEdgeStyle;shape=connector;curved=1;rounded=1;sketch=1;jiggle=2;curveFitting=1;orthogonalLoop=1;jettySize=auto;html=1;exitX=0.5;exitY=0;exitDx=0;exitDy=0;entryX=0.5;entryY=1;entryDx=0;entryDy=0;labelBackgroundColor=default;strokeColor=#b85450;fontFamily=Helvetica;fontSize=12;fontColor=default;endArrow=classic;dashed=1;dashPattern=1 4;fillColor=#f8cecc;" edge="1" parent="1" source="WCTlzMXXT-KYrttnkhmQ-21" target="WCTlzMXXT-KYrttnkhmQ-11">
          <mxGeometry relative="1" as="geometry" />
        </mxCell>
        <mxCell id="WCTlzMXXT-KYrttnkhmQ-25" value="其他" style="edgeLabel;html=1;align=center;verticalAlign=middle;resizable=0;points=[];fontSize=12;fontFamily=Helvetica;fontColor=default;" vertex="1" connectable="0" parent="WCTlzMXXT-KYrttnkhmQ-22">
          <mxGeometry x="0.0436" y="-1" relative="1" as="geometry">
            <mxPoint as="offset" />
          </mxGeometry>
        </mxCell>
        <mxCell id="WCTlzMXXT-KYrttnkhmQ-21" value="ECU" style="rounded=1;whiteSpace=wrap;html=1;sketch=1;curveFitting=1;jiggle=2;fillColor=#ffe6cc;strokeColor=#d79b00;fontFamily=Comic Sans MS;" vertex="1" parent="1">
          <mxGeometry x="504" y="644" width="109" height="51" as="geometry" />
        </mxCell>
        <mxCell id="WCTlzMXXT-KYrttnkhmQ-26" value="缓存最近两分钟视频" style="shape=callout;whiteSpace=wrap;html=1;perimeter=calloutPerimeter;rounded=1;sketch=1;jiggle=2;curveFitting=1;strokeColor=#6c8ebf;fontFamily=Helvetica;fontSize=12;fillColor=#dae8fc;dashed=1;dashPattern=8 8;" vertex="1" parent="1">
          <mxGeometry x="284" y="136" width="112" height="69" as="geometry" />
        </mxCell>
        <mxCell id="WCTlzMXXT-KYrttnkhmQ-29" value="" style="shape=crossbar;whiteSpace=wrap;html=1;rounded=1;sketch=1;jiggle=2;curveFitting=1;strokeColor=default;fontFamily=Helvetica;fontSize=12;fontColor=default;fillColor=default;" vertex="1" parent="1">
          <mxGeometry x="98" y="820" width="120" height="20" as="geometry" />
        </mxCell>
        <mxCell id="WCTlzMXXT-KYrttnkhmQ-30" value="" style="shape=crossbar;whiteSpace=wrap;html=1;rounded=1;sketch=1;jiggle=2;curveFitting=1;strokeColor=default;fontFamily=Helvetica;fontSize=12;fontColor=default;fillColor=default;" vertex="1" parent="1">
          <mxGeometry x="396" y="820" width="120" height="20" as="geometry" />
        </mxCell>
        <mxCell id="WCTlzMXXT-KYrttnkhmQ-31" value="" style="shape=crossbar;whiteSpace=wrap;html=1;rounded=1;sketch=1;jiggle=2;curveFitting=1;strokeColor=default;fontFamily=Helvetica;fontSize=12;fontColor=default;fillColor=default;" vertex="1" parent="1">
          <mxGeometry x="247" y="820" width="120" height="20" as="geometry" />
        </mxCell>
        <mxCell id="WCTlzMXXT-KYrttnkhmQ-32" value="前两分钟" style="text;html=1;strokeColor=none;fillColor=none;align=center;verticalAlign=middle;whiteSpace=wrap;rounded=0;fontSize=12;fontFamily=Helvetica;fontColor=default;" vertex="1" parent="1">
          <mxGeometry x="118" y="779" width="60" height="30" as="geometry" />
        </mxCell>
        <mxCell id="WCTlzMXXT-KYrttnkhmQ-33" value="后两分钟" style="text;html=1;strokeColor=none;fillColor=none;align=center;verticalAlign=middle;whiteSpace=wrap;rounded=0;fontSize=12;fontFamily=Helvetica;fontColor=default;" vertex="1" parent="1">
          <mxGeometry x="429" y="779" width="60" height="30" as="geometry" />
        </mxCell>
        <mxCell id="WCTlzMXXT-KYrttnkhmQ-34" value="事件中" style="text;html=1;strokeColor=none;fillColor=none;align=center;verticalAlign=middle;whiteSpace=wrap;rounded=0;fontSize=12;fontFamily=Helvetica;fontColor=default;" vertex="1" parent="1">
          <mxGeometry x="274" y="779" width="60" height="30" as="geometry" />
        </mxCell>
        <mxCell id="WCTlzMXXT-KYrttnkhmQ-35" value="" style="shape=crossbar;whiteSpace=wrap;html=1;rounded=1;sketch=1;jiggle=2;curveFitting=1;strokeColor=default;fontFamily=Helvetica;fontSize=12;fontColor=default;fillColor=default;" vertex="1" parent="1">
          <mxGeometry x="446" y="869" width="120" height="20" as="geometry" />
        </mxCell>
        <mxCell id="WCTlzMXXT-KYrttnkhmQ-36" value="事件2触发" style="text;html=1;strokeColor=none;fillColor=none;align=center;verticalAlign=middle;whiteSpace=wrap;rounded=0;fontSize=12;fontFamily=Helvetica;fontColor=default;" vertex="1" parent="1">
          <mxGeometry x="479" y="889" width="60" height="30" as="geometry" />
        </mxCell>
        <mxCell id="WCTlzMXXT-KYrttnkhmQ-37" value="" style="shape=curlyBracket;whiteSpace=wrap;html=1;rounded=1;labelPosition=left;verticalLabelPosition=middle;align=right;verticalAlign=middle;sketch=1;jiggle=2;curveFitting=1;strokeColor=#b85450;fontFamily=Helvetica;fontSize=12;fillColor=#f8cecc;direction=north;dashed=1;dashPattern=1 2;" vertex="1" parent="1">
          <mxGeometry x="324" y="894" width="120" height="20" as="geometry" />
        </mxCell>
        <mxCell id="WCTlzMXXT-KYrttnkhmQ-38" value="前两分钟吗？" style="text;html=1;strokeColor=none;fillColor=none;align=center;verticalAlign=middle;whiteSpace=wrap;rounded=0;fontSize=12;fontFamily=Helvetica;fontColor=default;" vertex="1" parent="1">
          <mxGeometry x="350" y="924" width="77" height="30" as="geometry" />
        </mxCell>
        <mxCell id="WCTlzMXXT-KYrttnkhmQ-43" style="edgeStyle=orthogonalEdgeStyle;shape=connector;curved=1;rounded=1;sketch=1;jiggle=2;curveFitting=1;orthogonalLoop=1;jettySize=auto;html=1;exitX=0.5;exitY=0;exitDx=0;exitDy=0;entryX=0.5;entryY=0;entryDx=0;entryDy=0;labelBackgroundColor=default;strokeColor=default;fontFamily=Helvetica;fontSize=12;fontColor=default;endArrow=classic;" edge="1" parent="1" source="WCTlzMXXT-KYrttnkhmQ-40" target="WCTlzMXXT-KYrttnkhmQ-41">
          <mxGeometry relative="1" as="geometry" />
        </mxCell>
        <mxCell id="WCTlzMXXT-KYrttnkhmQ-40" value="待机" style="ellipse;whiteSpace=wrap;html=1;rounded=1;sketch=1;jiggle=2;curveFitting=1;strokeColor=#666666;fontFamily=Helvetica;fontSize=12;fontColor=#333333;fillColor=#f5f5f5;" vertex="1" parent="1">
          <mxGeometry x="168" y="-96" width="91" height="62" as="geometry" />
        </mxCell>
        <mxCell id="WCTlzMXXT-KYrttnkhmQ-44" style="edgeStyle=orthogonalEdgeStyle;shape=connector;curved=1;rounded=1;sketch=1;jiggle=2;curveFitting=1;orthogonalLoop=1;jettySize=auto;html=1;exitX=0.5;exitY=1;exitDx=0;exitDy=0;entryX=0.5;entryY=1;entryDx=0;entryDy=0;labelBackgroundColor=default;strokeColor=default;fontFamily=Helvetica;fontSize=12;fontColor=default;endArrow=classic;" edge="1" parent="1" source="WCTlzMXXT-KYrttnkhmQ-41" target="WCTlzMXXT-KYrttnkhmQ-40">
          <mxGeometry relative="1" as="geometry" />
        </mxCell>
        <mxCell id="WCTlzMXXT-KYrttnkhmQ-41" value="事件" style="ellipse;whiteSpace=wrap;html=1;rounded=1;sketch=1;jiggle=2;curveFitting=1;strokeColor=#6c8ebf;fontFamily=Helvetica;fontSize=12;fillColor=#dae8fc;" vertex="1" parent="1">
          <mxGeometry x="343" y="-96" width="91" height="62" as="geometry" />
        </mxCell>
        <mxCell id="WCTlzMXXT-KYrttnkhmQ-46" style="edgeStyle=orthogonalEdgeStyle;shape=connector;curved=1;rounded=1;sketch=1;jiggle=2;curveFitting=1;orthogonalLoop=1;jettySize=auto;html=1;exitX=0.5;exitY=0;exitDx=0;exitDy=0;labelBackgroundColor=default;strokeColor=default;fontFamily=Helvetica;fontSize=12;fontColor=default;endArrow=none;endFill=0;startArrow=classic;startFill=1;" edge="1" parent="1" source="WCTlzMXXT-KYrttnkhmQ-45">
          <mxGeometry relative="1" as="geometry">
            <mxPoint x="300" y="-12" as="targetPoint" />
          </mxGeometry>
        </mxCell>
        <mxCell id="WCTlzMXXT-KYrttnkhmQ-45" value="退出" style="ellipse;whiteSpace=wrap;html=1;rounded=1;sketch=1;jiggle=2;curveFitting=1;strokeColor=#82b366;fontFamily=Helvetica;fontSize=12;fillColor=#d5e8d4;" vertex="1" parent="1">
          <mxGeometry x="254" y="29" width="91" height="62" as="geometry" />
        </mxCell>
        <mxCell id="WCTlzMXXT-KYrttnkhmQ-58" style="edgeStyle=orthogonalEdgeStyle;shape=connector;curved=1;rounded=1;sketch=1;jiggle=2;curveFitting=1;orthogonalLoop=1;jettySize=auto;html=1;exitX=0.5;exitY=1;exitDx=0;exitDy=0;labelBackgroundColor=default;strokeColor=default;fontFamily=Helvetica;fontSize=12;fontColor=default;endArrow=classic;" edge="1" parent="1" source="WCTlzMXXT-KYrttnkhmQ-47" target="WCTlzMXXT-KYrttnkhmQ-51">
          <mxGeometry relative="1" as="geometry" />
        </mxCell>
        <mxCell id="WCTlzMXXT-KYrttnkhmQ-59" style="edgeStyle=orthogonalEdgeStyle;shape=connector;curved=1;rounded=1;sketch=1;jiggle=2;curveFitting=1;orthogonalLoop=1;jettySize=auto;html=1;exitX=0.5;exitY=1;exitDx=0;exitDy=0;labelBackgroundColor=default;strokeColor=default;fontFamily=Helvetica;fontSize=12;fontColor=default;endArrow=classic;" edge="1" parent="1" source="WCTlzMXXT-KYrttnkhmQ-47" target="WCTlzMXXT-KYrttnkhmQ-52">
          <mxGeometry relative="1" as="geometry" />
        </mxCell>
        <mxCell id="WCTlzMXXT-KYrttnkhmQ-60" style="edgeStyle=orthogonalEdgeStyle;shape=connector;curved=1;rounded=1;sketch=1;jiggle=2;curveFitting=1;orthogonalLoop=1;jettySize=auto;html=1;exitX=0.5;exitY=1;exitDx=0;exitDy=0;labelBackgroundColor=default;strokeColor=default;fontFamily=Helvetica;fontSize=12;fontColor=default;endArrow=classic;" edge="1" parent="1" source="WCTlzMXXT-KYrttnkhmQ-47" target="WCTlzMXXT-KYrttnkhmQ-54">
          <mxGeometry relative="1" as="geometry" />
        </mxCell>
        <mxCell id="WCTlzMXXT-KYrttnkhmQ-61" style="edgeStyle=orthogonalEdgeStyle;shape=connector;curved=1;rounded=1;sketch=1;jiggle=2;curveFitting=1;orthogonalLoop=1;jettySize=auto;html=1;exitX=0.5;exitY=1;exitDx=0;exitDy=0;labelBackgroundColor=default;strokeColor=default;fontFamily=Helvetica;fontSize=12;fontColor=default;endArrow=classic;startArrow=classic;startFill=1;" edge="1" parent="1" source="WCTlzMXXT-KYrttnkhmQ-47" target="WCTlzMXXT-KYrttnkhmQ-53">
          <mxGeometry relative="1" as="geometry" />
        </mxCell>
        <mxCell id="WCTlzMXXT-KYrttnkhmQ-47" value="中间件" style="rounded=1;whiteSpace=wrap;html=1;sketch=1;jiggle=2;curveFitting=1;strokeColor=#d79b00;fontFamily=Helvetica;fontSize=12;fillColor=#ffe6cc;" vertex="1" parent="1">
          <mxGeometry x="207" y="1205" width="120" height="60" as="geometry" />
        </mxCell>
        <mxCell id="WCTlzMXXT-KYrttnkhmQ-57" style="edgeStyle=orthogonalEdgeStyle;shape=connector;curved=1;rounded=1;sketch=1;jiggle=2;curveFitting=1;orthogonalLoop=1;jettySize=auto;html=1;exitX=0.5;exitY=1;exitDx=0;exitDy=0;labelBackgroundColor=default;strokeColor=default;fontFamily=Helvetica;fontSize=12;fontColor=default;endArrow=classic;" edge="1" parent="1" source="WCTlzMXXT-KYrttnkhmQ-48" target="WCTlzMXXT-KYrttnkhmQ-47">
          <mxGeometry relative="1" as="geometry" />
        </mxCell>
        <mxCell id="WCTlzMXXT-KYrttnkhmQ-48" value="哨兵模式服务" style="rounded=1;whiteSpace=wrap;html=1;sketch=1;jiggle=2;curveFitting=1;strokeColor=#82b366;fontFamily=Helvetica;fontSize=12;fillColor=#d5e8d4;" vertex="1" parent="1">
          <mxGeometry x="207" y="1102" width="120" height="60" as="geometry" />
        </mxCell>
        <mxCell id="WCTlzMXXT-KYrttnkhmQ-55" style="edgeStyle=orthogonalEdgeStyle;shape=connector;curved=1;rounded=1;sketch=1;jiggle=2;curveFitting=1;orthogonalLoop=1;jettySize=auto;html=1;exitX=1;exitY=0.5;exitDx=0;exitDy=0;entryX=0;entryY=0.5;entryDx=0;entryDy=0;labelBackgroundColor=default;strokeColor=default;fontFamily=Helvetica;fontSize=12;fontColor=default;endArrow=classic;" edge="1" parent="1" source="WCTlzMXXT-KYrttnkhmQ-49" target="WCTlzMXXT-KYrttnkhmQ-48">
          <mxGeometry relative="1" as="geometry" />
        </mxCell>
        <mxCell id="WCTlzMXXT-KYrttnkhmQ-49" value="UI" style="rounded=1;whiteSpace=wrap;html=1;sketch=1;jiggle=2;curveFitting=1;strokeColor=#666666;fontFamily=Helvetica;fontSize=12;fontColor=#333333;fillColor=#f5f5f5;" vertex="1" parent="1">
          <mxGeometry x="29" y="1100" width="120" height="60" as="geometry" />
        </mxCell>
        <mxCell id="WCTlzMXXT-KYrttnkhmQ-56" style="edgeStyle=orthogonalEdgeStyle;shape=connector;curved=1;rounded=1;sketch=1;jiggle=2;curveFitting=1;orthogonalLoop=1;jettySize=auto;html=1;exitX=0.5;exitY=1;exitDx=0;exitDy=0;entryX=0.5;entryY=0;entryDx=0;entryDy=0;labelBackgroundColor=default;strokeColor=default;fontFamily=Helvetica;fontSize=12;fontColor=default;endArrow=classic;startArrow=classic;startFill=1;" edge="1" parent="1" source="WCTlzMXXT-KYrttnkhmQ-50" target="WCTlzMXXT-KYrttnkhmQ-48">
          <mxGeometry relative="1" as="geometry" />
        </mxCell>
        <mxCell id="WCTlzMXXT-KYrttnkhmQ-50" value="TSP" style="rounded=1;whiteSpace=wrap;html=1;sketch=1;jiggle=2;curveFitting=1;strokeColor=#6c8ebf;fontFamily=Helvetica;fontSize=12;fillColor=#dae8fc;" vertex="1" parent="1">
          <mxGeometry x="207" y="989" width="120" height="60" as="geometry" />
        </mxCell>
        <mxCell id="WCTlzMXXT-KYrttnkhmQ-51" value="APA" style="rounded=1;whiteSpace=wrap;html=1;sketch=1;jiggle=2;curveFitting=1;strokeColor=#d6b656;fontFamily=Helvetica;fontSize=12;fillColor=#fff2cc;" vertex="1" parent="1">
          <mxGeometry x="-24" y="1334" width="120" height="60" as="geometry" />
        </mxCell>
        <mxCell id="WCTlzMXXT-KYrttnkhmQ-52" value="BDCU" style="rounded=1;whiteSpace=wrap;html=1;sketch=1;jiggle=2;curveFitting=1;strokeColor=#d6b656;fontFamily=Helvetica;fontSize=12;fillColor=#fff2cc;" vertex="1" parent="1">
          <mxGeometry x="123" y="1334" width="120" height="60" as="geometry" />
        </mxCell>
        <mxCell id="WCTlzMXXT-KYrttnkhmQ-53" value="DVR" style="rounded=1;whiteSpace=wrap;html=1;sketch=1;jiggle=2;curveFitting=1;strokeColor=#d6b656;fontFamily=Helvetica;fontSize=12;fillColor=#fff2cc;" vertex="1" parent="1">
          <mxGeometry x="421" y="1334" width="120" height="60" as="geometry" />
        </mxCell>
        <mxCell id="WCTlzMXXT-KYrttnkhmQ-54" value="ECU" style="rounded=1;whiteSpace=wrap;html=1;sketch=1;jiggle=2;curveFitting=1;strokeColor=#d6b656;fontFamily=Helvetica;fontSize=12;fillColor=#fff2cc;" vertex="1" parent="1">
          <mxGeometry x="274" y="1334" width="120" height="60" as="geometry" />
        </mxCell>
      </root>
    </mxGraphModel>
  </diagram>
</mxfile>
